<svg width="18" height="18" viewBox="0 0 18 18" fill="none" xmlns="http://www.w3.org/2000/svg">
<mask id="mask0_101_25" style="mask-type:alpha" maskUnits="userSpaceOnUse" x="2" y="7" width="14" height="4">
<path d="M8.99999 7.5C9.39795 7.50013 9.77956 7.65835 10.0609 7.93984C10.3422 8.22133 10.5001 8.60304 10.5 9.001C10.4999 9.39896 10.3416 9.78056 10.0602 10.0619C9.77866 10.3432 9.39695 10.5011 8.99899 10.501C8.80194 10.5009 8.60684 10.4621 8.42481 10.3866C8.24279 10.3111 8.07741 10.2005 7.93813 10.0612C7.65682 9.77967 7.49886 9.39796 7.49899 9C7.49906 8.80295 7.53793 8.60785 7.6134 8.42582C7.68887 8.2438 7.79945 8.07842 7.93883 7.93913C8.22032 7.65783 8.60204 7.49987 8.99999 7.5V7.5ZM14.05 7.5C14.247 7.50007 14.4421 7.53894 14.6242 7.61441C14.8062 7.68988 14.9716 7.80046 15.1109 7.93984C15.2501 8.07922 15.3606 8.24467 15.436 8.42675C15.5113 8.60882 15.5501 8.80395 15.55 9.001C15.5499 9.19805 15.5111 9.39315 15.4356 9.57518C15.3601 9.7572 15.2495 9.92258 15.1102 10.0619C14.9708 10.2012 14.8053 10.3116 14.6232 10.387C14.4412 10.4623 14.246 10.5011 14.049 10.501C13.651 10.5009 13.2694 10.3427 12.9881 10.0612C12.7068 9.77967 12.5489 9.39796 12.549 9C12.5491 8.60204 12.7073 8.22044 12.9888 7.93913C13.2703 7.65783 13.652 7.49987 14.05 7.5V7.5ZM3.99999 7.5C4.19704 7.50007 4.39215 7.53894 4.57417 7.61441C4.75619 7.68988 4.92157 7.80046 5.06086 7.93984C5.20015 8.07922 5.31062 8.24467 5.38597 8.42675C5.46131 8.60882 5.50006 8.80395 5.49999 9.001C5.49993 9.19805 5.46105 9.39315 5.38558 9.57518C5.31012 9.7572 5.19953 9.92258 5.06015 10.0619C4.92077 10.2012 4.75532 10.3116 4.57325 10.387C4.39117 10.4623 4.19604 10.5011 3.99899 10.501C3.60104 10.5009 3.21943 10.3427 2.93813 10.0612C2.65682 9.77967 2.49886 9.39796 2.49899 9C2.49913 8.60204 2.65734 8.22044 2.93883 7.93913C3.22032 7.65783 3.60204 7.49987 3.99999 7.5V7.5Z" fill="white"/>
</mask>
<g mask="url(#mask0_101_25)">
<path d="M8.99999 7.5C9.39795 7.50013 9.77956 7.65835 10.0609 7.93984C10.3422 8.22133 10.5001 8.60304 10.5 9.001C10.4999 9.39896 10.3416 9.78056 10.0602 10.0619C9.77866 10.3432 9.39695 10.5011 8.99899 10.501C8.80194 10.5009 8.60684 10.4621 8.42481 10.3866C8.24279 10.3111 8.07741 10.2005 7.93813 10.0612C7.65682 9.77967 7.49886 9.39796 7.49899 9C7.49906 8.80295 7.53793 8.60785 7.6134 8.42582C7.68887 8.2438 7.79945 8.07842 7.93883 7.93913C8.22032 7.65783 8.60204 7.49987 8.99999 7.5V7.5ZM14.05 7.5C14.247 7.50007 14.4421 7.53894 14.6242 7.61441C14.8062 7.68988 14.9716 7.80046 15.1109 7.93984C15.2501 8.07922 15.3606 8.24467 15.436 8.42675C15.5113 8.60882 15.5501 8.80395 15.55 9.001C15.5499 9.19805 15.5111 9.39315 15.4356 9.57518C15.3601 9.7572 15.2495 9.92258 15.1102 10.0619C14.9708 10.2012 14.8053 10.3116 14.6232 10.387C14.4412 10.4623 14.246 10.5011 14.049 10.501C13.651 10.5009 13.2694 10.3427 12.9881 10.0612C12.7068 9.77967 12.5489 9.39796 12.549 9C12.5491 8.60204 12.7073 8.22044 12.9888 7.93913C13.2703 7.65783 13.652 7.49987 14.05 7.5V7.5ZM3.99999 7.5C4.19704 7.50007 4.39215 7.53894 4.57417 7.61441C4.75619 7.68988 4.92157 7.80046 5.06086 7.93984C5.20015 8.07922 5.31062 8.24467 5.38597 8.42675C5.46131 8.60882 5.50006 8.80395 5.49999 9.001C5.49993 9.19805 5.46105 9.39315 5.38558 9.57518C5.31012 9.7572 5.19953 9.92258 5.06015 10.0619C4.92077 10.2012 4.75532 10.3116 4.57325 10.387C4.39117 10.4623 4.19604 10.5011 3.99899 10.501C3.60104 10.5009 3.21943 10.3427 2.93813 10.0612C2.65682 9.77967 2.49886 9.39796 2.49899 9C2.49913 8.60204 2.65734 8.22044 2.93883 7.93913C3.22032 7.65783 3.60204 7.49987 3.99999 7.5V7.5Z" fill="#333333"/>
<path fill-rule="evenodd" clip-rule="evenodd" d="M0 0H18V18H0V0Z" fill="#333333"/>
</g>
</svg>
