<svg width="9" height="14" viewBox="0 0 9 14" fill="none" xmlns="http://www.w3.org/2000/svg">
<path d="M6.95501 7L0.977006 12.977C0.875348 13.0833 0.819356 13.2253 0.821014 13.3724C0.822672 13.5195 0.881848 13.6601 0.985877 13.7641C1.08991 13.8682 1.23052 13.9273 1.37763 13.929C1.52474 13.9307 1.66666 13.8747 1.77301 13.773L8.14801 7.398C8.25353 7.29243 8.3128 7.14927 8.3128 7C8.3128 6.85073 8.25353 6.70757 8.14801 6.602L1.77301 0.227C1.66745 0.121444 1.52429 0.0621433 1.37501 0.0621433C1.22573 0.0621433 1.08256 0.121444 0.977006 0.227C0.87145 0.332556 0.812149 0.475721 0.812149 0.625C0.812149 0.774279 0.87145 0.917444 0.977006 1.023L6.95501 7Z" fill="black"/>
</svg>
