<svg width="9" height="14" viewBox="0 0 9 14" fill="none" xmlns="http://www.w3.org/2000/svg">
<path d="M2.045 7L8.023 1.023C8.07721 0.971174 8.12053 0.909038 8.1504 0.84024C8.18027 0.771443 8.19609 0.69737 8.19693 0.622373C8.19778 0.547376 8.18363 0.472965 8.15532 0.403512C8.12701 0.334058 8.0851 0.270961 8.03207 0.217927C7.97903 0.164892 7.91594 0.122989 7.84648 0.0946782C7.77703 0.066367 7.70262 0.0522186 7.62762 0.0530639C7.55263 0.0539091 7.47855 0.0697308 7.40976 0.0996001C7.34096 0.129469 7.27882 0.172784 7.227 0.227L0.851996 6.602C0.799628 6.65421 0.758077 6.71624 0.729727 6.78454C0.701376 6.85283 0.686783 6.92605 0.686783 7C0.686783 7.07395 0.701376 7.14717 0.729727 7.21546C0.758077 7.28376 0.799628 7.34579 0.851996 7.398L7.227 13.773C7.33334 13.8747 7.47526 13.9307 7.62237 13.929C7.76948 13.9273 7.9101 13.8682 8.01412 13.7641C8.11815 13.6601 8.17733 13.5195 8.17899 13.3724C8.18065 13.2253 8.12465 13.0833 8.023 12.977L2.045 7Z" fill="black"/>
</svg>
