<svg width="18" height="18" viewBox="0 0 18 18" fill="none" xmlns="http://www.w3.org/2000/svg">
<path d="M15.727 17.273C15.7788 17.3272 15.841 17.3705 15.9098 17.4004C15.9786 17.4303 16.0526 17.4461 16.1276 17.4469C16.2026 17.4478 16.277 17.4336 16.3465 17.4053C16.4159 17.377 16.479 17.3351 16.5321 17.2821C16.5851 17.229 16.627 17.1659 16.6553 17.0965C16.6836 17.027 16.6978 16.9526 16.6969 16.8776C16.6961 16.8026 16.6803 16.7286 16.6504 16.6598C16.6205 16.591 16.5772 16.5288 16.523 16.477L11.648 11.602L11.458 11.437C11.3505 11.3447 11.2121 11.2962 11.0705 11.3014C10.9289 11.3066 10.7944 11.365 10.694 11.465C9.81595 12.3365 8.64918 12.8564 7.41401 12.9265C6.17884 12.9966 4.96075 12.612 3.98977 11.8453C3.01878 11.0787 2.3621 9.98306 2.14373 8.76533C1.92536 7.5476 2.1604 6.29205 2.80449 5.23577C3.44857 4.1795 4.45711 3.3956 5.63966 3.03211C6.82222 2.66862 8.09694 2.75069 9.22311 3.26282C10.3493 3.77496 11.249 4.68171 11.7523 5.81186C12.2556 6.942 12.3277 8.21732 11.955 9.397C11.9328 9.46745 11.9247 9.54159 11.9312 9.61517C11.9376 9.68876 11.9585 9.76035 11.9926 9.82586C12.0268 9.89137 12.0735 9.94952 12.13 9.99699C12.1866 10.0445 12.252 10.0803 12.3225 10.1025C12.3929 10.1247 12.4671 10.1328 12.5407 10.1263C12.6143 10.1199 12.6858 10.099 12.7514 10.0649C12.8169 10.0307 12.875 9.98404 12.9225 9.92745C12.9699 9.87085 13.0058 9.80545 13.028 9.735C13.4761 8.31541 13.3974 6.78187 12.8064 5.4156C12.2154 4.04932 11.1516 2.94189 9.81022 2.2964C8.46882 1.6509 6.93968 1.5106 5.50322 1.90122C4.06676 2.29184 2.81925 3.1872 1.98948 4.42311C1.1597 5.65903 0.803266 7.15265 0.985542 8.63007C1.16782 10.1075 1.87659 11.4697 2.98187 12.4669C4.08715 13.4641 5.51487 14.0294 7.0032 14.0591C8.49152 14.0889 9.94071 13.5812 11.085 12.629L15.727 17.273V17.273Z" fill="#333333" stroke="#333333" stroke-width="0.3"/>
</svg>
